<?xml version="1.0" encoding="UTF-8"?>
<svg id="Camada_2" data-name="Camada 2" xmlns="http://www.w3.org/2000/svg" viewBox="0 0 54.33 47.14">
  <defs>
    <linearGradient id="gs-gradient" x1="0%" y1="0%" x2="100%" y2="100%">
      <stop offset="0%" stop-color="#6620F2" />
      <stop offset="100%" stop-color="#31EBCB" />
    </linearGradient>
  </defs>
  <g id="Camada_1-2" data-name="Camada 1">
    <path fill="url(#gs-gradient)" d="M15.4,46.22l2.71-2.71,3.62-3.63h-10.16c-.39,0-.7.3-.71.67v4.01c0,1.41,1.16,2.57,2.58,2.57.78,0,1.49-.36,1.96-.91Z"/>
    <path fill="url(#gs-gradient)" d="M28.97,25.38l-3.62,3.63-2.05,2.05c-.88.87-2.05,1.57-3.35,1.57-4.24,0-8.47,0-12.71,0-3.98,0-7.24-3.26-7.24-7.24v-14.53C0,6.88,3.26,3.62,7.24,3.62h28.97s-3.62,3.63-3.62,3.63l-2.05,2.05c-.88.87-2.05,1.57-3.35,1.57H7.24s0,0,0,0v14.51h10.87s10.87,0,10.87,0h0Z"/>
    <path fill="url(#gs-gradient)" d="M25.35,21.76l3.62-3.63,2.05-2.05c.88-.87,2.05-1.57,3.35-1.57,4.24,0,8.47,0,12.71,0,3.98,0,7.24,3.26,7.24,7.24v14.53c0,3.98-3.26,7.24-7.24,7.24h-28.97s3.62-3.63,3.62-3.63l2.05-2.05c.88-.87,2.05-1.57,3.35-1.57h19.95s0,0,0,0v-14.51h-10.87s-10.87,0-10.87,0h0Z"/>
    <path fill="url(#gs-gradient)" d="M38.93.91l-2.71,2.71-3.62,3.63h10.16c.39,0,.7-.3.71-.67V2.57c0-1.41-1.16-2.57-2.58-2.57-.78,0-1.49.36-1.96.91h0Z"/>
  </g>
</svg>