<?xml version="1.0" encoding="UTF-8"?>
<svg id="Camada_2" data-name="Camada 2" xmlns="http://www.w3.org/2000/svg" viewBox="0 0 109 38.59">
  <defs>
    <style>
      .cls-1 {
        fill-rule: evenodd;
      }
    </style>
  </defs>
  <g id="Camada_1-2" data-name="Camada 1">
    <g>
      <path d="M38.78,30.72h-4.75c-7.27,0-13.19-5.83-13.19-12.99s5.92-12.99,13.19-12.99h4.75v5.98h-4.75c-3.98,0-7.22,3.15-7.22,7.02s3.24,7.02,7.22,7.02h4.75v5.98Z"/>
      <path d="M17.94,30.72h-4.75c-7.27,0-13.19-5.83-13.19-12.99S5.92,4.73,13.19,4.73h4.75v5.98h-4.75c-3.98,0-7.22,3.15-7.22,7.02s3.24,7.02,7.22,7.02h4.75v5.98Z"/>
      <path d="M42.94,30.72V4.41h9.75c3,0,5.37.62,7.11,1.85,1.74,1.24,2.61,3.01,2.61,5.33,0,2.14-.89,3.87-2.68,5.18,2.97,1.56,4.46,3.79,4.46,6.69,0,1.41-.37,2.66-1.11,3.76-.74,1.1-1.8,1.95-3.17,2.57-1.37.62-2.99.93-4.86.93h-12.1ZM48.61,15.67c2.95-.38,5-.85,6.16-1.42,1.16-.57,1.74-1.34,1.74-2.32,0-.88-.33-1.54-1-1.98-.67-.44-1.63-.66-2.89-.66h-4.01v6.39h0ZM54.43,25.72c1.11,0,1.97-.23,2.59-.68.62-.45.93-1.08.93-1.89,0-1.79-1.16-3.14-3.48-4.04-1.76.48-3.72.88-5.86,1.21v5.41h5.82Z"/>
      <path d="M66.4,30.72V4.41h9.75c3,0,5.37.62,7.11,1.85,1.74,1.24,2.61,3.01,2.61,5.33,0,2.14-.89,3.87-2.68,5.18,2.97,1.56,4.46,3.79,4.46,6.69,0,1.41-.37,2.66-1.11,3.76-.74,1.1-1.8,1.95-3.17,2.57-1.37.62-2.99.93-4.86.93h-12.1ZM72.07,15.67c2.95-.38,5-.85,6.16-1.42,1.16-.57,1.74-1.34,1.74-2.32,0-.88-.33-1.54-1-1.98-.67-.44-1.63-.66-2.89-.66h-4.01v6.39h0ZM77.89,25.72c1.11,0,1.97-.23,2.59-.68.62-.45.93-1.08.93-1.89,0-1.79-1.16-3.14-3.48-4.04-1.76.48-3.72.88-5.86,1.21v5.41h5.82Z"/>
      <path class="cls-1" d="M91.55,15.02l1.82-1.21,1.82,1.21-3.63,2.42v-2.42ZM109,2.42l-1.82,1.21-1.82-1.21,3.63-2.42v2.42h0ZM109,11.63l-8.72,5.82-8.72-5.82,10.36-6.9,1.82,1.21-8.36,5.57,5.09,3.39,2.36-1.58-1.82-1.21,4.36-2.91,3.63,2.42ZM91.55,5.82l8.72-5.82,8.72,5.82-10.36,6.9-1.82-1.21,8.36-5.57-5.09-3.39-2.36,1.57,1.82,1.21-4.36,2.91-3.63-2.42h0Z"/>
      <path d="M.97,38.33c-.3-.17-.53-.41-.71-.73-.17-.31-.26-.67-.26-1.08,0-.38.09-.73.26-1.04.18-.31.42-.56.72-.75.3-.18.64-.27,1-.27.22,0,.41.02.59.07.18.05.35.12.52.23l-.22.74c-.25-.15-.53-.23-.83-.23-.22,0-.43.05-.61.15-.18.1-.32.25-.42.44-.1.19-.15.41-.15.65s.05.47.15.66c.1.19.24.34.42.45.18.11.37.16.59.16.18,0,.34-.02.47-.06.14-.04.28-.1.43-.18l.21.73c-.18.11-.37.19-.55.24-.18.05-.39.08-.63.08-.36,0-.69-.09-.99-.26"/>
      <path d="M4.21,38.38c-.24-.14-.43-.32-.56-.57-.13-.24-.2-.52-.2-.82s.06-.56.19-.81c.12-.24.3-.43.52-.57.22-.14.48-.2.76-.2.44,0,.78.14,1.03.41.25.27.37.66.37,1.15v.27h-2.06c.05.19.15.35.3.47.15.12.33.18.54.18.18,0,.34-.02.48-.05.14-.04.27-.09.39-.16l.15.63c-.15.09-.32.16-.51.21-.19.05-.38.07-.58.07-.31,0-.59-.07-.83-.2ZM5.53,36.68c0-.2-.06-.36-.16-.47-.1-.11-.25-.16-.44-.16s-.35.06-.46.17c-.11.12-.19.27-.22.46h1.29Z"/>
      <path d="M6.91,38.53v-3.06h.74v.48c.09-.16.22-.29.39-.39.16-.1.35-.14.56-.14.38,0,.67.14.88.41.21.27.31.64.31,1.11v1.6h-.82v-1.55c0-.26-.05-.46-.14-.6-.1-.14-.24-.2-.44-.2s-.37.07-.48.2c-.12.14-.18.32-.18.55v1.6h-.82Z"/>
      <path d="M11.12,38.24c-.21-.23-.32-.56-.32-1.01v-1.05h-.61v-.71h.61v-.94h.82v.94h1.05l-.1.71h-.94v1.04c0,.19.04.34.12.45.08.11.2.16.36.16.09,0,.17,0,.24-.03.07-.02.15-.05.23-.09l.2.64c-.21.15-.47.23-.78.23-.36,0-.65-.11-.86-.34Z"/>
      <path d="M13.29,38.53v-3.06h.74v.47c.09-.15.22-.28.39-.37.17-.09.36-.14.57-.14.12,0,.23.01.34.03l-.13.78c-.1-.03-.23-.05-.36-.05-.2,0-.38.07-.51.2-.14.13-.2.32-.2.56v1.58h-.82Z"/>
      <path d="M16.28,38.37c-.24-.14-.43-.33-.57-.57s-.21-.51-.21-.8.07-.55.21-.8c.14-.24.33-.43.57-.57.24-.14.51-.21.8-.21s.55.07.8.21c.24.14.43.33.57.57.14.24.21.51.21.8s-.07.56-.21.8c-.14.24-.33.43-.57.57-.24.14-.51.21-.8.21s-.55-.07-.8-.21ZM17.62,37.6c.14-.16.21-.36.21-.6s-.07-.44-.21-.6c-.14-.16-.32-.24-.55-.24s-.4.08-.54.24c-.14.16-.21.36-.21.6s.07.44.21.6c.14.16.32.24.54.24s.4-.08.55-.24Z"/>
      <path d="M21.53,38.33c-.3-.17-.53-.41-.71-.73-.17-.31-.26-.67-.26-1.08,0-.38.09-.73.26-1.04.18-.31.42-.56.72-.75.3-.18.64-.27,1-.27.22,0,.41.02.59.07s.35.12.52.23l-.22.74c-.25-.15-.53-.23-.83-.23-.22,0-.43.05-.61.15-.18.1-.32.25-.42.44-.1.19-.15.41-.15.65s.05.47.15.66c.1.19.24.34.42.45.18.11.37.16.59.16.18,0,.34-.02.47-.06.14-.04.28-.1.43-.18l.21.73c-.18.11-.37.19-.55.24-.18.05-.39.08-.63.08-.36,0-.69-.09-.99-.26"/>
      <path d="M24.49,38.17c-.21-.28-.32-.65-.32-1.12v-1.58h.82v1.55c0,.25.05.45.14.59.09.14.24.22.43.22s.36-.07.48-.21c.11-.14.17-.32.17-.55v-1.59h.82v3.07h-.74v-.47c-.09.16-.21.29-.37.38-.16.1-.33.14-.52.14-.39,0-.69-.14-.9-.42Z"/>
      <path d="M28.05,38.26c-.18-.21-.27-.52-.27-.92v-3.13h.82v3.13c0,.16.03.28.09.37s.15.13.26.13c.07,0,.13,0,.18-.02.05-.01.11-.03.16-.07l.21.65c-.19.12-.42.18-.67.18-.34,0-.61-.11-.79-.32"/>
      <path d="M30.24,38.24c-.21-.23-.32-.56-.32-1.01v-1.05h-.61v-.71h.61v-.94h.82v.94h1.05l-.1.71h-.94v1.04c0,.19.04.34.12.45.08.11.2.16.36.16.09,0,.17,0,.24-.03.07-.02.15-.05.23-.09l.2.64c-.21.15-.47.23-.78.23-.36,0-.65-.11-.86-.34Z"/>
      <path d="M32.59,38.17c-.21-.28-.32-.65-.32-1.12v-1.58h.82v1.55c0,.25.05.45.14.59.09.14.24.22.44.22s.36-.07.48-.21c.11-.14.17-.32.17-.55v-1.59h.82v3.07h-.74v-.47c-.09.16-.21.29-.37.38-.16.1-.33.14-.52.14-.39,0-.69-.14-.9-.42"/>
      <path d="M35.9,38.53v-3.06h.74v.47c.09-.15.22-.28.39-.37.17-.09.36-.14.57-.14.12,0,.23.01.34.03l-.13.78c-.1-.03-.23-.05-.36-.05-.2,0-.38.07-.51.2-.14.13-.21.32-.21.56v1.58h-.82Z"/>
      <path d="M40.44,35.75c.24.22.36.54.36.95v1.84h-.74v-.43c-.09.14-.22.25-.38.34-.16.09-.35.13-.57.13-.28,0-.51-.07-.67-.22-.16-.15-.25-.35-.25-.59,0-.22.06-.41.18-.56.12-.15.32-.27.59-.37.27-.09.62-.16,1.07-.2v-.02c0-.33-.2-.5-.6-.5-.31,0-.63.09-.95.27l-.18-.66c.17-.1.36-.17.56-.23.2-.05.4-.08.59-.08.42,0,.76.11.99.33M39.65,37.87c.11-.06.2-.15.27-.27.07-.12.1-.25.1-.39v-.04c-.35.03-.61.08-.8.16-.18.08-.28.19-.28.34,0,.09.03.16.09.22.06.05.14.08.25.08.13,0,.25-.03.37-.1"/>
      <path d="M41.78,38.26c-.18-.21-.27-.52-.27-.92v-3.13h.82v3.13c0,.16.03.28.09.37.06.09.15.13.26.13.07,0,.13,0,.18-.02.05-.01.11-.03.16-.07l.21.65c-.19.12-.42.18-.67.18-.34,0-.61-.11-.79-.32"/>
      <path d="M45.12,38.53v-4.02h1.44c.44,0,.79.09,1.05.28.26.19.39.45.39.8s-.15.61-.45.82c.47.25.71.59.71,1.03,0,.21-.05.4-.16.57-.11.16-.27.29-.48.39-.21.09-.45.14-.73.14h-1.76ZM45.88,36.28c.48-.07.82-.15,1.02-.25.2-.1.3-.23.3-.4,0-.15-.06-.26-.17-.34-.11-.08-.28-.11-.49-.11h-.66v1.1h0ZM46.81,37.86c.19,0,.34-.04.45-.12.11-.08.16-.19.16-.33,0-.3-.2-.53-.6-.68-.29.08-.6.15-.93.2v.93h.93Z"/>
      <path d="M50.92,35.75c.24.22.36.54.36.95v1.84h-.74v-.43c-.09.14-.22.25-.38.34-.16.09-.35.13-.57.13-.28,0-.51-.07-.67-.22-.16-.15-.25-.35-.25-.59,0-.22.06-.41.18-.56.12-.15.32-.27.59-.37s.62-.16,1.07-.2v-.02c0-.33-.2-.5-.6-.5-.31,0-.63.09-.95.27l-.18-.66c.17-.1.36-.17.56-.23.2-.05.4-.08.59-.08.42,0,.76.11.99.33M50.14,37.87c.11-.06.2-.15.27-.27.07-.12.1-.25.1-.39v-.04c-.35.03-.61.08-.8.16-.18.08-.28.19-.28.34,0,.09.03.16.09.22.06.05.14.08.25.08.13,0,.25-.03.37-.1"/>
      <path d="M52,38.53v-3.06h.74v.48c.09-.16.22-.29.39-.39.16-.1.35-.14.56-.14.38,0,.67.14.88.41.21.27.31.64.31,1.11v1.6h-.82v-1.55c0-.26-.05-.46-.14-.6-.1-.14-.24-.2-.44-.2s-.37.07-.48.2c-.12.14-.18.32-.18.55v1.6h-.82Z"/>
      <path d="M56.18,38.38c-.23-.13-.42-.32-.55-.56-.13-.24-.2-.52-.2-.83s.07-.56.21-.81c.14-.24.33-.43.57-.57.24-.14.5-.2.78-.2.17,0,.32.02.46.06.14.04.28.1.42.19l-.2.68c-.2-.12-.41-.18-.64-.18s-.41.08-.56.23c-.14.15-.22.35-.22.6s.07.46.22.61c.14.15.33.23.55.23.14,0,.25-.02.36-.05.1-.03.21-.08.32-.15l.2.68c-.14.09-.28.16-.43.2-.14.04-.31.06-.51.06-.29,0-.55-.07-.78-.2"/>
      <path d="M58.98,38.37c-.24-.14-.43-.33-.57-.57s-.21-.51-.21-.8.07-.55.21-.8c.14-.24.33-.43.57-.57.24-.14.51-.21.8-.21s.55.07.8.21c.24.14.43.33.57.57.14.24.21.51.21.8s-.07.56-.21.8c-.14.24-.33.43-.57.57-.24.14-.51.21-.8.21s-.55-.07-.8-.21ZM60.32,37.6c.14-.16.21-.36.21-.6s-.07-.44-.21-.6c-.14-.16-.32-.24-.55-.24s-.4.08-.54.24c-.14.16-.21.36-.21.6s.07.44.21.6c.14.16.32.24.54.24s.4-.08.55-.24Z"/>
      <path d="M63.89,38.38c-.21-.13-.38-.31-.49-.55-.12-.23-.18-.51-.18-.81s.06-.58.18-.83c.12-.24.29-.43.51-.57.22-.14.46-.21.74-.21.18,0,.35.04.5.11.15.07.28.17.39.29v-1.61h.82v4.33h-.74v-.49c-.1.16-.24.29-.42.38s-.38.15-.6.15c-.27,0-.5-.07-.72-.2M65.32,37.64c.15-.14.22-.34.22-.59v-.09c0-.25-.07-.45-.22-.59-.15-.15-.33-.22-.55-.22-.13,0-.25.03-.36.1-.11.07-.2.17-.27.3-.07.13-.1.28-.1.46,0,.26.07.47.21.62.14.15.31.23.52.23s.4-.07.55-.21"/>
      <path d="M67.76,38.37c-.24-.14-.43-.33-.57-.57-.14-.24-.21-.51-.21-.8s.07-.55.21-.8c.14-.24.33-.43.57-.57.24-.14.51-.21.8-.21s.55.07.8.21c.24.14.43.33.57.57.14.24.21.51.21.8s-.07.56-.21.8c-.14.24-.33.43-.57.57-.24.14-.51.21-.8.21s-.55-.07-.8-.21ZM69.1,37.6c.14-.16.21-.36.21-.6s-.07-.44-.21-.6c-.14-.16-.32-.24-.55-.24s-.4.08-.54.24c-.14.16-.21.36-.21.6s.07.44.21.6c.14.16.32.24.54.24s.4-.08.55-.24Z"/>
      <path d="M72.19,38.53v-4.02h1.44c.44,0,.79.09,1.05.28.26.19.39.45.39.8s-.15.61-.45.82c.47.25.71.59.71,1.03,0,.21-.05.4-.16.57-.11.16-.27.29-.48.39-.21.09-.45.14-.73.14h-1.76ZM72.95,36.28c.48-.07.82-.15,1.02-.25.2-.1.3-.23.3-.4,0-.15-.06-.26-.17-.34-.11-.08-.28-.11-.49-.11h-.66v1.1h0ZM73.88,37.86c.19,0,.34-.04.45-.12.11-.08.16-.19.16-.33,0-.3-.2-.53-.6-.68-.29.08-.6.15-.93.2v.93h.93Z"/>
      <path d="M75.9,38.53v-3.06h.74v.47c.09-.15.22-.28.39-.37.17-.09.36-.14.57-.14.12,0,.23.01.33.03l-.13.78c-.1-.03-.23-.05-.36-.05-.21,0-.38.07-.51.2-.14.13-.2.32-.2.56v1.58h-.82Z"/>
      <path d="M80.44,35.75c.24.22.36.54.36.95v1.84h-.74v-.43c-.09.14-.22.25-.38.34-.16.09-.35.13-.57.13-.28,0-.51-.07-.67-.22-.16-.15-.25-.35-.25-.59,0-.22.06-.41.18-.56.12-.15.32-.27.59-.37.27-.09.62-.16,1.07-.2v-.02c0-.33-.2-.5-.6-.5-.31,0-.63.09-.95.27l-.18-.66c.17-.1.36-.17.56-.23.2-.05.4-.08.59-.08.42,0,.76.11.99.33M79.65,37.87c.11-.06.2-.15.27-.27.07-.12.1-.25.1-.39v-.04c-.35.03-.61.08-.8.16-.18.08-.28.19-.28.34,0,.09.03.16.09.22.06.05.14.08.25.08.13,0,.25-.03.37-.1"/>
      <path d="M81.87,38.49c-.23-.06-.4-.14-.54-.22l.2-.63c.12.07.28.13.46.19.18.05.37.08.55.08.27,0,.41-.08.41-.23,0-.08-.04-.15-.13-.2-.09-.05-.25-.11-.48-.18-.29-.09-.51-.21-.66-.35s-.22-.34-.22-.59c0-.28.11-.51.33-.67.22-.17.49-.25.83-.25.18,0,.36.03.54.08.18.05.34.12.48.21l-.2.61c-.13-.07-.26-.12-.41-.16s-.28-.06-.41-.06c-.12,0-.21.02-.28.06-.07.04-.1.1-.1.18,0,.07.03.13.1.17.07.05.18.1.35.16.25.09.45.17.59.26.14.08.25.18.33.3.08.12.11.27.11.45,0,.29-.11.51-.33.68-.22.16-.52.24-.89.24-.2,0-.42-.03-.65-.09"/>
      <path d="M84.39,34.97c-.09-.09-.14-.2-.14-.34s.05-.25.14-.35c.09-.09.21-.14.35-.14s.26.05.36.14c.1.09.14.2.14.33,0,.14-.05.25-.14.35-.1.1-.21.14-.36.14s-.26-.05-.35-.14ZM85.15,38.53h-.82v-3.06h.82v3.06Z"/>
      <path d="M86.19,38.26c-.18-.21-.27-.52-.27-.92v-3.13h.82v3.13c0,.16.03.28.09.37.06.09.15.13.26.13.07,0,.13,0,.18-.02.05-.01.11-.03.16-.07l.21.65c-.19.12-.42.18-.67.18-.34,0-.61-.11-.79-.32"/>
    </g>
  </g>
</svg>