<?xml version="1.0" encoding="UTF-8"?>
<svg id="Camada_2" data-name="Camada 2" xmlns="http://www.w3.org/2000/svg" viewBox="0 0 3028.83 1033.07">
  <g id="Layer_1" data-name="Layer 1">
    <g>
      <path d="M49.83,943.02l-20.11,35.2,20.11-35.2ZM49.83,458.48v484.54h0l-20.11,35.2v25.14h881.77v-25.14l-20.11-36.57h0v-484.08h-26.97v-192.9h-17.83v-57.6c8.69-8.23,12.8-20.11,12.34-32,0-27.43-22.4-49.83-49.83-49.83s-49.83,22.4-49.83,49.83c0,12.34,5.03,24.23,13.71,32.91v56.68h-18.28v193.82h-106.96v-170.05l5.03-11.43h-361.12l5.03,11.43v140.79h0v29.26h-111.99v-194.27h-17.37v-57.6c8.69-8.23,13.71-19.66,13.26-32,0-27.43-22.4-49.83-49.83-49.83s-49.83,22.4-49.83,49.83c0,12.34,5.03,24.23,13.26,32.91v57.14h-16.46v194.27h-27.88v-.46ZM19.66,474.48L.91,458.03h-.91v-28.8h49.83v-165.47h0v-29.26h16v-12.8c-7.31-13.71-11.88-29.26-12.8-44.8,0-38.85,27.43-71.77,65.37-79.08v-7.77c-3.2-3.66-5.03-7.77-5.03-12.8,0-5.94,2.74-11.43,7.31-14.63l5.49-53.94c-.46-.91-.46-1.83,0-2.74,0-3.2,2.74-5.94,5.94-5.94s5.94,2.74,6.4,5.94c.46.91.46,1.83,0,2.74l3.66,53.94c5.03,3.2,8.23,8.69,8.23,15.08,0,5.03-1.83,9.6-5.49,12.8v7.77c38.4,6.4,66.74,39.77,66.74,79.08-.91,16-5.49,32-13.26,46.17v12.8h16.91v29.26h0v165.47h53.94v-137.59l-16-15.08v-22.86l16-7.77h0l9.14-17.37h22.4l16.91,17.37h83.65l15.08-16h22.4l15.54,16h36.57l15.08-16h22.4l15.08,16h87.77l16.46-17.37h20.11l8.23,16.91,16.91,7.77v22.4l-16,15.08v136.68h50.28v-193.82h17.37v-13.71c-7.31-13.71-11.43-29.26-12.34-44.8.46-37.94,27.43-69.94,64.45-77.71v-7.77c-7.31-7.31-6.86-18.74,0-25.6.91-.91,1.83-1.83,2.74-2.29l5.94-54.4v-2.74c.46-3.2,3.2-5.49,6.4-5.49s5.94,2.74,5.94,5.94v2.74l4.57,53.48c4.57,3.2,7.31,8.69,7.31,14.63,0,4.57-1.83,9.6-5.49,12.8v7.77c37.94,7.31,65.37,40.23,65.37,79.08-.91,16-5.49,32-13.26,46.17v13.26h17.83v191.99h47.54v29.26h-2.29l-18.28,16.46v163.65h19.66v27.43l-19.66,16.91v112.45h19.66v27.43l-19.66,16.91v102.39h0l19.66,18.28v43.88h0v29.26H0v-29.71h0v-43.88l19.66-16.91h0v-102.85l-19.66-16.91v-27.43h19.66v-112.45l-19.66-16.91v-27.43h19.66v-164.1Z"/>
      <path d="M1002.22,429.05v340.33h55.78v-149.95h154.8v-50.12h-154.8v-90.94h176.63v-49.72l-232.41.4h0ZM1282.73,429.05v340.33h56.99v-339.52l-56.99-.81ZM1562.43,420.97c-101.05,0-163.29,67.1-163.29,179.46s62.25,179.46,163.29,179.46,163.29-67.5,163.29-179.46-62.65-179.46-163.29-179.46ZM1562.43,470.28c65.48,0,105.9,46.89,105.9,130.15s-40.42,130.15-105.9,130.15-105.9-47.69-105.9-130.15c-.4-82.86,40.42-130.15,105.9-130.15ZM2071.31,536.57c-6.06-70.73-58.2-115.19-141.06-115.19-100.64,0-160.87,66.29-160.87,179.46s59.42,179.46,156.83,179.46c84.88,0,143.89-54.57,146.72-131.77h-55.37c-2.43,46.89-42.04,82.86-88.92,80.43h-.4c-61.84,0-101.45-48.5-101.45-130.55s37.19-127.32,102.26-127.32c48.91,0,80.03,23.44,86.09,63.46l56.18,2.02ZM2127.89,430.26v339.12h56.59v-140.25h84.88c44.87,0,52.14,19,53.76,54.57l2.02,40.82c-.4,15.36,2.43,30.72,8.49,44.87h63.46v-9.3c-12.93-6.87-13.34-19.4-14.15-39.21l-2.83-48.91c-2.02-36.78-8.49-57.8-40.82-67.9,31.53-12.93,51.33-44.87,48.91-79.22,4.04-48.5-31.93-90.94-80.43-94.98-5.25-.4-10.51-.4-15.36,0h-18.19l-146.32.4ZM2183.67,478.36h82.45c42.44,0,65.48,12.13,65.48,51.74s-21.02,52.95-66.69,52.95h-80.84v-105.9,1.21h-.4ZM2450.84,430.26v213.82c0,88.92,45.67,135,134.6,135s135-47.29,135-135v-215.03h-56.99v212.2c0,57.8-24.25,86.09-78.01,86.09s-77.6-28.29-77.6-86.09v-212.2l-56.99,1.21ZM2775,430.26v48.1h187.14l-198.46,243.73v47.29h263.94v-50.12h-194.82l196.03-240.9v-49.72l-253.83,1.62Z"/>
      <g>
        <path d="M1027.13,877.89v28.44h49.82v19.99h-49.82v39.21h-24.91v-107.62h81.34v19.98h-56.43Z"/>
        <path d="M1179.95,882.81v82.72h-22.76v-9.84c-6.3,7.23-15.53,11.07-25.68,11.07-20.76,0-35.36-11.69-35.36-37.21v-46.74h23.99v43.2c0,13.84,6.15,19.99,16.76,19.99s19.06-7.07,19.06-22.29v-40.9h23.99Z"/>
        <path d="M1286.79,918.17v47.36h-23.99v-43.66c0-13.38-6.15-19.53-16.76-19.53-11.53,0-19.83,7.08-19.83,22.29v40.9h-23.99v-82.72h22.91v9.69c6.46-7.07,16.14-10.92,27.37-10.92,19.53,0,34.29,11.38,34.29,36.59Z"/>
        <path d="M1393.63,851.45v114.08h-22.91v-9.53c-6,7.23-14.76,10.76-25.83,10.76-23.37,0-41.36-16.61-41.36-42.59s17.99-42.59,41.36-42.59c10.15,0,18.76,3.23,24.75,9.99v-40.13h23.99ZM1370.11,924.17c0-14.3-9.23-22.91-21.06-22.91s-21.22,8.61-21.22,22.91,9.23,22.91,21.22,22.91,21.06-8.61,21.06-22.91Z"/>
        <path d="M1488.94,918.33v47.2h-22.45v-10.3c-4.46,7.53-13.07,11.53-25.22,11.53-19.37,0-30.9-10.76-30.9-25.06s10.3-24.75,35.52-24.75h19.07c0-10.3-6.15-16.3-19.07-16.3-8.76,0-17.83,2.92-23.83,7.68l-8.61-16.76c9.07-6.46,22.45-9.99,35.67-9.99,25.21,0,39.82,11.69,39.82,36.75ZM1464.95,939.39v-8.46h-16.45c-11.22,0-14.76,4.15-14.76,9.69,0,6,5.07,9.99,13.53,9.99,8,0,14.91-3.69,17.68-11.22Z"/>
        <path d="M1569.95,935.7l18.6,10.15c-5.69,12.76-18.6,20.3-35.06,20.91l-1.54,6.46c9.38,1.08,13.38,6.45,13.38,12.76,0,9.38-8.92,15.22-22.6,15.22-5.38,0-10.77-1.23-14.3-3.23l3.69-10.3c2.92,1.38,6.3,2.31,9.99,2.31,5.69,0,8-2,8-4.92,0-2.61-2.16-4.46-7.53-4.46h-5.23l3.69-14.76c-21.37-4-35.67-20.14-35.67-41.67,0-24.91,19.22-42.59,46.12-42.59,17.37,0,31.06,7.53,37.06,21.06l-18.6,9.99c-4.46-7.84-11.07-11.38-18.6-11.38-12.15,0-21.68,8.46-21.68,22.91s9.53,22.91,21.68,22.91c7.53,0,14.14-3.38,18.6-11.38Z"/>
        <path d="M1675.56,918.33v47.2h-22.44v-10.3c-4.46,7.53-13.07,11.53-25.22,11.53-19.37,0-30.9-10.76-30.9-25.06s10.3-24.75,35.52-24.75h19.06c0-10.3-6.15-16.3-19.06-16.3-8.76,0-17.84,2.92-23.83,7.68l-8.61-16.76c9.07-6.46,22.45-9.99,35.67-9.99,25.21,0,39.82,11.69,39.82,36.75ZM1620.83,871.58h-12.15c.31-13.68,7.23-22.44,17.99-22.44s15.99,9.84,21.53,9.84c4.15,0,7.07-3.23,7.38-8.31h12.15c-.31,13.23-7.23,21.99-17.99,21.99s-15.99-9.69-21.53-9.69c-4.15,0-7.07,3.08-7.38,8.61ZM1651.58,939.39v-8.46h-16.45c-11.22,0-14.76,4.15-14.76,9.69,0,6,5.07,9.99,13.53,9.99,8,0,14.91-3.69,17.68-11.22Z"/>
        <path d="M1692,924.17c0-24.91,19.22-42.59,45.51-42.59s45.36,17.68,45.36,42.59-19.06,42.59-45.36,42.59-45.51-17.68-45.51-42.59ZM1758.58,924.17c0-14.3-9.07-22.91-21.06-22.91s-21.22,8.61-21.22,22.91,9.23,22.91,21.22,22.91,21.06-8.61,21.06-22.91Z"/>
        <path d="M1837.27,911.72c0-31.98,24.91-55.66,58.89-55.66s58.89,23.52,58.89,55.66-25.06,55.66-58.89,55.66-58.89-23.67-58.89-55.66ZM1929.83,911.72c0-20.45-14.45-34.44-33.67-34.44s-33.67,13.99-33.67,34.44,14.45,34.44,33.67,34.44,33.67-13.99,33.67-34.44Z"/>
        <path d="M1964.1,957.84l7.99-17.22c7.38,4.77,18.6,8,28.75,8,11.07,0,15.22-2.92,15.22-7.53,0-13.53-49.97.31-49.97-32.75,0-15.68,14.14-26.75,38.28-26.75,11.38,0,23.98,2.61,31.83,7.23l-8,17.07c-8.15-4.61-16.29-6.15-23.83-6.15-10.76,0-15.38,3.38-15.38,7.68,0,14.15,49.97.46,49.97,33.06,0,15.38-14.3,26.29-39.06,26.29-13.99,0-28.14-3.84-35.82-8.92Z"/>
        <path d="M2185.03,882.81l-29.98,82.72h-23.06l-18.6-51.35-19.22,51.35h-23.06l-29.83-82.72h22.6l19.53,55.97,20.29-55.97h20.3l19.68,55.97,20.14-55.97h21.22Z"/>
        <path d="M2266.66,918.33v47.2h-22.45v-10.3c-4.46,7.53-13.07,11.53-25.22,11.53-19.37,0-30.9-10.76-30.9-25.06s10.3-24.75,35.52-24.75h19.07c0-10.3-6.15-16.3-19.07-16.3-8.76,0-17.83,2.92-23.83,7.68l-8.61-16.76c9.07-6.46,22.45-9.99,35.67-9.99,25.21,0,39.82,11.69,39.82,36.75ZM2242.67,939.39v-8.46h-16.45c-11.22,0-14.76,4.15-14.76,9.69,0,6,5.07,9.99,13.53,9.99,8,0,14.91-3.69,17.68-11.22Z"/>
        <path d="M2288.32,851.45h23.98v114.08h-23.98v-114.08Z"/>
        <path d="M2418.85,851.45v114.08h-22.91v-9.53c-6,7.23-14.76,10.76-25.83,10.76-23.37,0-41.36-16.61-41.36-42.59s17.99-42.59,41.36-42.59c10.15,0,18.76,3.23,24.75,9.99v-40.13h23.99ZM2395.32,924.17c0-14.3-9.23-22.91-21.06-22.91s-21.22,8.61-21.22,22.91,9.23,22.91,21.22,22.91,21.06-8.61,21.06-22.91Z"/>
        <path d="M2434.82,924.17c0-24.91,19.22-42.59,45.51-42.59s45.36,17.68,45.36,42.59-19.06,42.59-45.36,42.59-45.51-17.68-45.51-42.59ZM2501.39,924.17c0-14.3-9.07-22.91-21.06-22.91s-21.22,8.61-21.22,22.91,9.23,22.91,21.22,22.91,21.06-8.61,21.06-22.91Z"/>
        <path d="M2580.09,911.72c0-32.44,24.91-55.66,58.43-55.66,18.6,0,34.13,6.77,44.28,19.07l-15.99,14.76c-7.23-8.31-16.3-12.61-27.06-12.61-20.14,0-34.44,14.14-34.44,34.44s14.3,34.44,34.44,34.44c10.76,0,19.83-4.31,27.06-12.76l15.99,14.76c-10.15,12.45-25.68,19.22-44.43,19.22-33.36,0-58.27-23.22-58.27-55.66Z"/>
        <path d="M2749.2,881.58v22.14c-2-.15-3.54-.31-5.38-.31-13.23,0-21.99,7.23-21.99,23.07v39.05h-23.98v-82.72h22.91v10.92c5.85-7.99,15.69-12.15,28.44-12.15Z"/>
        <path d="M2847.44,882.81v82.72h-22.75v-9.84c-6.3,7.23-15.53,11.07-25.68,11.07-20.76,0-35.37-11.69-35.37-37.21v-46.74h23.99v43.2c0,13.84,6.15,19.99,16.76,19.99s19.07-7.07,19.07-22.29v-40.9h23.98Z"/>
        <path d="M2937.83,947.08v18.45h-73.8v-14.45l42.13-49.82h-41.05v-18.45h71.34v14.46l-42.13,49.81h43.51Z"/>
      </g>
    </g>
  </g>
</svg>