<?xml version="1.0" encoding="UTF-8"?>
<svg id="Camada_1" xmlns="http://www.w3.org/2000/svg" version="1.1" xmlns:xlink="http://www.w3.org/1999/xlink" viewBox="0 0 109 39">
  <!-- Generator: Adobe Illustrator 29.5.1, SVG Export Plug-In . SVG Version: 2.1.0 Build 141)  -->
  <defs>
    <style>
      .st0 {
        fill-rule: evenodd;
      }
    </style>
  </defs>
  <g>
    <path d="M38.8,30.9h-4.7c-7.3,0-13.2-5.8-13.2-13s5.9-13,13.2-13h4.7v6h-4.7c-4,0-7.2,3.1-7.2,7s3.2,7,7.2,7h4.7v6Z"/>
    <path d="M17.9,30.9h-4.7c-7.3,0-13.2-5.8-13.2-13S5.9,4.9,13.2,4.9h4.7v6h-4.7c-4,0-7.2,3.1-7.2,7s3.2,7,7.2,7h4.7v6Z"/>
    <path d="M42.9,30.9V4.6h9.8c3,0,5.4.6,7.1,1.9,1.7,1.2,2.6,3,2.6,5.3s-.9,3.9-2.7,5.2c3,1.6,4.5,3.8,4.5,6.7s-.4,2.7-1.1,3.8c-.7,1.1-1.8,2-3.2,2.6-1.4.6-3,.9-4.9.9h-12.1ZM48.6,15.9c2.9-.4,5-.9,6.2-1.4,1.2-.6,1.7-1.3,1.7-2.3s-.3-1.5-1-2c-.7-.4-1.6-.7-2.9-.7h-4v6.4h0ZM54.4,25.9c1.1,0,2-.2,2.6-.7.6-.5.9-1.1.9-1.9,0-1.8-1.2-3.1-3.5-4-1.8.5-3.7.9-5.9,1.2v5.4h5.8Z"/>
    <path d="M66.4,30.9V4.6h9.8c3,0,5.4.6,7.1,1.9,1.7,1.2,2.6,3,2.6,5.3s-.9,3.9-2.7,5.2c3,1.6,4.5,3.8,4.5,6.7s-.4,2.7-1.1,3.8c-.7,1.1-1.8,2-3.2,2.6-1.4.6-3,.9-4.9.9h-12.1ZM72.1,15.9c2.9-.4,5-.9,6.2-1.4,1.2-.6,1.7-1.3,1.7-2.3s-.3-1.5-1-2c-.7-.4-1.6-.7-2.9-.7h-4v6.4h0ZM77.9,25.9c1.1,0,2-.2,2.6-.7.6-.5.9-1.1.9-1.9,0-1.8-1.2-3.1-3.5-4-1.8.5-3.7.9-5.9,1.2v5.4h5.8Z"/>
    <path class="st0" d="M91.6,15.2l1.8-1.2,1.8,1.2-3.6,2.4v-2.4ZM109,2.6l-1.8,1.2-1.8-1.2,3.6-2.4v2.4h0ZM109,11.8l-8.7,5.8-8.7-5.8,10.4-6.9,1.8,1.2-8.4,5.6,5.1,3.4,2.4-1.6-1.8-1.2,4.4-2.9,3.6,2.4ZM91.6,6L100.3.2l8.7,5.8-10.4,6.9-1.8-1.2,8.4-5.6-5.1-3.4-2.4,1.6,1.8,1.2-4.4,2.9-3.6-2.4h0Z"/>
    <path d="M1,38.5c-.3-.2-.5-.4-.7-.7-.2-.3-.3-.7-.3-1.1s0-.7.3-1c.2-.3.4-.6.7-.7.3-.2.6-.3,1-.3s.4,0,.6,0c.2,0,.4.1.5.2l-.2.7c-.3-.2-.5-.2-.8-.2s-.4,0-.6.2c-.2.1-.3.2-.4.4-.1.2-.2.4-.2.7s0,.5.2.7c.1.2.2.3.4.5.2.1.4.2.6.2s.3,0,.5,0c.1,0,.3-.1.4-.2l.2.7c-.2.1-.4.2-.6.2-.2,0-.4,0-.6,0-.4,0-.7,0-1-.3"/>
    <path d="M4.2,38.6c-.2-.1-.4-.3-.6-.6-.1-.2-.2-.5-.2-.8s0-.6.2-.8c.1-.2.3-.4.5-.6.2-.1.5-.2.8-.2.4,0,.8.1,1,.4.2.3.4.7.4,1.1v.3h-2.1c0,.2.2.3.3.5.1.1.3.2.5.2s.3,0,.5,0c.1,0,.3,0,.4-.2l.2.6c-.2,0-.3.2-.5.2-.2,0-.4,0-.6,0-.3,0-.6,0-.8-.2ZM5.5,36.9c0-.2,0-.4-.2-.5-.1-.1-.3-.2-.4-.2s-.3,0-.5.2c-.1.1-.2.3-.2.5h1.3Z"/>
    <path d="M6.9,38.7v-3.1h.7v.5c0-.2.2-.3.4-.4.2,0,.4-.1.6-.1.4,0,.7.1.9.4.2.3.3.6.3,1.1v1.6h-.8v-1.6c0-.3,0-.5-.1-.6,0-.1-.2-.2-.4-.2s-.4,0-.5.2c-.1.1-.2.3-.2.5v1.6h-.8Z"/>
    <path d="M11.1,38.4c-.2-.2-.3-.6-.3-1v-1.1h-.6v-.7h.6v-.9h.8v.9h1v.7h-1v1c0,.2,0,.3.1.4,0,.1.2.2.4.2s.2,0,.2,0c0,0,.1,0,.2,0l.2.6c-.2.2-.5.2-.8.2s-.6-.1-.9-.3Z"/>
    <path d="M13.3,38.7v-3.1h.7v.5c0-.2.2-.3.4-.4.2,0,.4-.1.6-.1s.2,0,.3,0v.8c-.2,0-.4,0-.5,0-.2,0-.4,0-.5.2-.1.1-.2.3-.2.6v1.6h-.8Z"/>
    <path d="M16.3,38.6c-.2-.1-.4-.3-.6-.6s-.2-.5-.2-.8,0-.6.2-.8c.1-.2.3-.4.6-.6.2-.1.5-.2.8-.2s.6,0,.8.2c.2.1.4.3.6.6.1.2.2.5.2.8s0,.6-.2.8c-.1.2-.3.4-.6.6-.2.1-.5.2-.8.2s-.6,0-.8-.2ZM17.6,37.8c.1-.2.2-.4.2-.6s0-.4-.2-.6c-.1-.2-.3-.2-.5-.2s-.4,0-.5.2c-.1.2-.2.4-.2.6s0,.4.2.6c.1.2.3.2.5.2s.4,0,.5-.2Z"/>
    <path d="M21.5,38.5c-.3-.2-.5-.4-.7-.7-.2-.3-.3-.7-.3-1.1s0-.7.3-1c.2-.3.4-.6.7-.7.3-.2.6-.3,1-.3s.4,0,.6,0,.4.1.5.2l-.2.7c-.3-.2-.5-.2-.8-.2s-.4,0-.6.2c-.2.1-.3.2-.4.4-.1.2-.2.4-.2.7s0,.5.2.7c.1.2.2.3.4.5.2.1.4.2.6.2s.3,0,.5,0c.1,0,.3-.1.4-.2l.2.7c-.2.1-.4.2-.6.2-.2,0-.4,0-.6,0-.4,0-.7,0-1-.3"/>
    <path d="M24.5,38.4c-.2-.3-.3-.6-.3-1.1v-1.6h.8v1.5c0,.3,0,.4.1.6,0,.1.2.2.4.2s.4,0,.5-.2c.1-.1.2-.3.2-.6v-1.6h.8v3.1h-.7v-.5c0,.2-.2.3-.4.4-.2,0-.3.1-.5.1-.4,0-.7-.1-.9-.4Z"/>
    <path d="M28.1,38.5c-.2-.2-.3-.5-.3-.9v-3.1h.8v3.1c0,.2,0,.3,0,.4s.1.1.3.1.1,0,.2,0c0,0,.1,0,.2,0l.2.7c-.2.1-.4.2-.7.2s-.6-.1-.8-.3"/>
    <path d="M30.2,38.4c-.2-.2-.3-.6-.3-1v-1.1h-.6v-.7h.6v-.9h.8v.9h1v.7h-1v1c0,.2,0,.3.1.4,0,.1.2.2.4.2s.2,0,.2,0c0,0,.1,0,.2,0l.2.6c-.2.2-.5.2-.8.2s-.6-.1-.9-.3Z"/>
    <path d="M32.6,38.4c-.2-.3-.3-.6-.3-1.1v-1.6h.8v1.5c0,.3,0,.4.1.6,0,.1.2.2.4.2s.4,0,.5-.2c.1-.1.2-.3.2-.6v-1.6h.8v3.1h-.7v-.5c0,.2-.2.3-.4.4-.2,0-.3.1-.5.1-.4,0-.7-.1-.9-.4"/>
    <path d="M35.9,38.7v-3.1h.7v.5c0-.2.2-.3.4-.4.2,0,.4-.1.6-.1s.2,0,.3,0v.8c-.2,0-.4,0-.5,0-.2,0-.4,0-.5.2-.1.1-.2.3-.2.6v1.6h-.8Z"/>
    <path d="M40.4,36c.2.2.4.5.4.9v1.8h-.7v-.4c0,.1-.2.3-.4.3-.2,0-.4.1-.6.1s-.5,0-.7-.2c-.2-.1-.2-.3-.2-.6s0-.4.2-.6c.1-.2.3-.3.6-.4.3,0,.6-.2,1.1-.2h0c0-.3-.2-.5-.6-.5s-.6,0-.9.3l-.2-.7c.2,0,.4-.2.6-.2.2,0,.4,0,.6,0,.4,0,.8.1,1,.3M39.7,38.1c.1,0,.2-.2.3-.3,0-.1.1-.2.1-.4h0c-.3,0-.6,0-.8.1-.2,0-.3.2-.3.3s0,.2,0,.2c0,0,.1,0,.2,0s.3,0,.4,0"/>
    <path d="M41.8,38.5c-.2-.2-.3-.5-.3-.9v-3.1h.8v3.1c0,.2,0,.3,0,.4,0,0,.1.1.3.1s.1,0,.2,0c0,0,.1,0,.2,0l.2.7c-.2.1-.4.2-.7.2s-.6-.1-.8-.3"/>
    <path d="M45.1,38.7v-4h1.4c.4,0,.8,0,1,.3.3.2.4.5.4.8s-.1.6-.4.8c.5.2.7.6.7,1s0,.4-.2.6c-.1.2-.3.3-.5.4-.2,0-.5.1-.7.1h-1.8ZM45.9,36.5c.5,0,.8-.2,1-.3.2,0,.3-.2.3-.4s0-.3-.2-.3c-.1,0-.3-.1-.5-.1h-.7v1.1h0ZM46.8,38.1c.2,0,.3,0,.4-.1.1,0,.2-.2.2-.3,0-.3-.2-.5-.6-.7-.3,0-.6.1-.9.2v.9h.9Z"/>
    <path d="M50.9,36c.2.2.4.5.4.9v1.8h-.7v-.4c0,.1-.2.3-.4.3-.2,0-.4.1-.6.1s-.5,0-.7-.2c-.2-.1-.2-.3-.2-.6s0-.4.2-.6c.1-.2.3-.3.6-.4s.6-.2,1.1-.2h0c0-.3-.2-.5-.6-.5s-.6,0-.9.3l-.2-.7c.2,0,.4-.2.6-.2.2,0,.4,0,.6,0,.4,0,.8.1,1,.3M50.1,38.1c.1,0,.2-.2.3-.3,0-.1.1-.2.1-.4h0c-.3,0-.6,0-.8.1-.2,0-.3.2-.3.3s0,.2,0,.2c0,0,.1,0,.2,0s.3,0,.4,0"/>
    <path d="M52,38.7v-3.1h.7v.5c0-.2.2-.3.4-.4.2,0,.4-.1.6-.1.4,0,.7.1.9.4.2.3.3.6.3,1.1v1.6h-.8v-1.6c0-.3,0-.5-.1-.6,0-.1-.2-.2-.4-.2s-.4,0-.5.2c-.1.1-.2.3-.2.5v1.6h-.8Z"/>
    <path d="M56.2,38.6c-.2-.1-.4-.3-.6-.6-.1-.2-.2-.5-.2-.8s0-.6.2-.8c.1-.2.3-.4.6-.6.2-.1.5-.2.8-.2s.3,0,.5,0c.1,0,.3.1.4.2l-.2.7c-.2-.1-.4-.2-.6-.2s-.4,0-.6.2c-.1.2-.2.4-.2.6s0,.5.2.6c.1.2.3.2.6.2s.3,0,.4,0c.1,0,.2,0,.3-.1l.2.7c-.1,0-.3.2-.4.2-.1,0-.3,0-.5,0-.3,0-.6,0-.8-.2"/>
    <path d="M59,38.6c-.2-.1-.4-.3-.6-.6s-.2-.5-.2-.8,0-.6.2-.8c.1-.2.3-.4.6-.6.2-.1.5-.2.8-.2s.6,0,.8.2c.2.1.4.3.6.6.1.2.2.5.2.8s0,.6-.2.8c-.1.2-.3.4-.6.6-.2.1-.5.2-.8.2s-.6,0-.8-.2ZM60.3,37.8c.1-.2.2-.4.2-.6s0-.4-.2-.6c-.1-.2-.3-.2-.5-.2s-.4,0-.5.2c-.1.2-.2.4-.2.6s0,.4.2.6c.1.2.3.2.5.2s.4,0,.5-.2Z"/>
    <path d="M63.9,38.6c-.2-.1-.4-.3-.5-.5-.1-.2-.2-.5-.2-.8s0-.6.2-.8c.1-.2.3-.4.5-.6.2-.1.5-.2.7-.2s.3,0,.5.1c.2,0,.3.2.4.3v-1.6h.8v4.3h-.7v-.5c-.1.2-.2.3-.4.4s-.4.1-.6.1-.5,0-.7-.2M65.3,37.8c.1-.1.2-.3.2-.6h0c0-.3,0-.5-.2-.7-.1-.1-.3-.2-.5-.2s-.3,0-.4.1c-.1,0-.2.2-.3.3,0,.1-.1.3-.1.5,0,.3,0,.5.2.6.1.2.3.2.5.2s.4,0,.5-.2"/>
    <path d="M67.8,38.6c-.2-.1-.4-.3-.6-.6-.1-.2-.2-.5-.2-.8s0-.6.2-.8c.1-.2.3-.4.6-.6.2-.1.5-.2.8-.2s.6,0,.8.2c.2.1.4.3.6.6.1.2.2.5.2.8s0,.6-.2.8c-.1.2-.3.4-.6.6-.2.1-.5.2-.8.2s-.6,0-.8-.2ZM69.1,37.8c.1-.2.2-.4.2-.6s0-.4-.2-.6c-.1-.2-.3-.2-.5-.2s-.4,0-.5.2c-.1.2-.2.4-.2.6s0,.4.2.6c.1.2.3.2.5.2s.4,0,.5-.2Z"/>
    <path d="M72.2,38.7v-4h1.4c.4,0,.8,0,1,.3.3.2.4.5.4.8s-.1.6-.4.8c.5.2.7.6.7,1s0,.4-.2.6c-.1.2-.3.3-.5.4-.2,0-.5.1-.7.1h-1.8ZM73,36.5c.5,0,.8-.2,1-.3.2,0,.3-.2.3-.4s0-.3-.2-.3c-.1,0-.3-.1-.5-.1h-.7v1.1h0ZM73.9,38.1c.2,0,.3,0,.4-.1.1,0,.2-.2.2-.3,0-.3-.2-.5-.6-.7-.3,0-.6.1-.9.2v.9h.9Z"/>
    <path d="M75.9,38.7v-3.1h.7v.5c0-.2.2-.3.4-.4.2,0,.4-.1.6-.1s.2,0,.3,0v.8c-.2,0-.4,0-.5,0-.2,0-.4,0-.5.2-.1.1-.2.3-.2.6v1.6h-.8Z"/>
    <path d="M80.4,36c.2.2.4.5.4.9v1.8h-.7v-.4c0,.1-.2.3-.4.3-.2,0-.4.1-.6.1s-.5,0-.7-.2c-.2-.1-.2-.3-.2-.6s0-.4.2-.6c.1-.2.3-.3.6-.4.3,0,.6-.2,1.1-.2h0c0-.3-.2-.5-.6-.5s-.6,0-.9.3l-.2-.7c.2,0,.4-.2.6-.2.2,0,.4,0,.6,0,.4,0,.8.1,1,.3M79.7,38.1c.1,0,.2-.2.3-.3,0-.1.1-.2.1-.4h0c-.3,0-.6,0-.8.1-.2,0-.3.2-.3.3s0,.2,0,.2c0,0,.1,0,.2,0s.3,0,.4,0"/>
    <path d="M81.9,38.7c-.2,0-.4-.1-.5-.2l.2-.6c.1,0,.3.1.5.2.2,0,.4,0,.5,0,.3,0,.4,0,.4-.2s0-.2-.1-.2c0,0-.2-.1-.5-.2-.3,0-.5-.2-.7-.4s-.2-.3-.2-.6.1-.5.3-.7c.2-.2.5-.3.8-.3s.4,0,.5,0c.2,0,.3.1.5.2l-.2.6c-.1,0-.3-.1-.4-.2s-.3,0-.4,0-.2,0-.3,0c0,0-.1,0-.1.2s0,.1.1.2c0,0,.2,0,.3.2.3,0,.4.2.6.3.1,0,.3.2.3.3,0,.1.1.3.1.5,0,.3-.1.5-.3.7-.2.2-.5.2-.9.2s-.4,0-.6,0"/>
    <path d="M84.4,35.2c0,0-.1-.2-.1-.3s0-.3.1-.3c0,0,.2-.1.4-.1s.3,0,.4.1c0,0,.1.2.1.3s0,.3-.1.3c0,0-.2.1-.4.1s-.3,0-.4-.1ZM85.1,38.7h-.8v-3.1h.8v3.1Z"/>
    <path d="M86.2,38.5c-.2-.2-.3-.5-.3-.9v-3.1h.8v3.1c0,.2,0,.3,0,.4,0,0,.1.1.3.1s.1,0,.2,0c0,0,.1,0,.2,0l.2.7c-.2.1-.4.2-.7.2s-.6-.1-.8-.3"/>
  </g>
  <image width="220" height="47" transform="translate(-69.2 -54.5)" xlink:href="../../../../../../../Users/Gs Studio/Downloads/logo.png"/>
</svg>