<?xml version="1.0" encoding="UTF-8"?>
<svg id="Camada_2" data-name="Camada 2" xmlns="http://www.w3.org/2000/svg" viewBox="0 0 355.25 90.7">
  <g id="logo-peck">
    <g>
      <path id="k2" d="M353.6,66.8l-17.3-23.1-15.1,13.5,13.3,19.9c1.5,2.2,3.3,3.4,5.4,3.8,2.1.3,4.4,0,6.7-.9l4-1.6c1.2-.5,2.2-1.2,3-2.1s1.2-1.9,1.5-3c.2-1.1.2-2.2,0-3.3-.3-1.2-.8-2.3-1.5-3.2"/>
      <path id="k" d="M313.3,56.7l29.9-26.4,7.3-6.6c1.9-1.7,2.7-3.6,2.5-5.7-.2-2.1-1.3-3.8-3.3-5.1l-4-2.6c-1.9-1.1-3.9-1.6-5.9-1.4-2.1.2-4,1.3-5.7,3.1l-20.8,23.5v-18.7c0-2.3-.8-4.1-2.5-5.5-1.6-1.4-3.6-2.1-5.7-2.1h-6.1c-2.2,0-4.1.7-5.7,2.1-1.7,1.4-2.5,3.2-2.5,5.5v56.2c0,2.3.8,4.1,2.5,5.5,1.6,1.4,3.6,2.1,5.7,2.1h6.1c2.2,0,4.1-.7,5.7-2.1s2.5-3.2,2.5-5.5v-16.3Z"/>
      <path id="c" d="M284.3,60.5c-1-1.9-2.5-3-4.4-3.4s-3.8,0-5.7,1c-2.5,1.3-4.6,2.3-6.6,2.9-1.9.6-4.1.9-6.4.9-4.9,0-8.9-1.6-11.9-4.9-3-3.2-4.5-7.4-4.5-12.5,0-2.9.4-5.4,1.3-7.5.9-2.1,2.1-3.8,3.7-5.2,1.6-1.4,3.4-2.4,5.5-3,2.1-.7,4.4-1,6.7-1,1.9,0,3.7.2,5.6.7,1.8.5,3.8,1.3,6,2.4,1.8.9,3.6,1.3,5.4.9,1.8-.3,3.3-1.5,4.7-3.5l2.1-3.4c1-1.7,1.4-3.5,1-5.4s-1.5-3.4-3.3-4.6c-3.3-2.2-6.8-3.8-10.5-4.9-3.7-1-7.8-1.6-12.3-1.6-5.1,0-9.9.9-14.6,2.6-4.6,1.8-8.7,4.2-12.2,7.5-3.5,3.2-6.3,7.1-8.3,11.7-2.1,4.6-3.1,9.7-3.1,15.4s.9,10.6,2.8,15c1.9,4.4,4.5,8.1,7.7,11.2,3.3,3,7.1,5.4,11.5,7s9.1,2.4,14.2,2.4c3.5,0,6.6-.2,9.3-.7,2.7-.5,5.1-1.1,7.2-1.8,2.1-.7,3.8-1.5,5.3-2.2,1.5-.8,2.6-1.5,3.5-2.2,1.7-1.1,2.8-2.6,3.2-4.4.4-1.8.1-3.6-.9-5.5l-2-3.9Z"/>
      <path id="e" d="M219.1,61.9h-27.7v-8.8h17.2c1.8,0,3.2-.5,4.3-1.6s1.6-2.6,1.6-4.5v-5.1c0-1.9-.5-3.4-1.6-4.6-1.1-1.1-2.5-1.7-4.3-1.7h-17.2v-7.7h27.6c1.9,0,3.4-.6,4.5-1.8,1.1-1.2,1.7-2.8,1.7-4.7v-5c0-1.9-.6-3.4-1.7-4.6-1.1-1.2-2.6-1.8-4.5-1.8h-39c-3,0-5.5,1-7.4,3.1-1.9,2-2.9,4.4-2.9,7.2v50.8c0,2.5.8,4.6,2.5,6.3,1.7,1.7,3.8,2.6,6.2,2.6h40.7c1.9,0,3.4-.6,4.5-1.8,1.1-1.2,1.7-2.8,1.7-4.7v-5c0-1.9-.6-3.4-1.7-4.6-1.1-1.4-2.6-2-4.5-2"/>
      <path id="p" d="M156.6,13.6c-3.3-1.9-7-3.2-11.2-4s-8.6-1.2-13.1-1.2c-3.2,0-6.5.2-9.9.5s-6.5.9-9.2,1.8c-1.8.6-3.3,1.6-4.5,3.1-1.2,1.5-1.8,3.2-1.8,5.1v54.1c0,2.3.8,4.1,2.3,5.5,1.6,1.4,3.5,2.1,5.7,2.1h5.1c2.4,0,4.3-.7,5.9-2.1s2.4-3.2,2.4-5.5v-14.6c.8.1,1.7.1,2.5.1h2.8c7.3,0,13.1-.9,17.5-2.6,4.4-1.8,7.8-3.9,10.2-6.5s4-5.4,4.8-8.4,1.2-5.8,1.2-8.4c0-4.6-1-8.5-3-11.6-1.9-3-4.5-5.5-7.7-7.4M143.5,39.7c-2,1.5-5.1,2.2-9.5,2.2h-2.1c-.9,0-2.1,0-3.4-.1v-15.7c1.1-.2,2.3-.3,3.4-.3h2.7c4,0,6.9.6,8.9,1.7s3,3,3,5.7c0,2.8-1,5-3,6.5"/>
      <path id="logo" d="M45.3,0C20.3,0,0,20.3,0,45.4s20.3,45.3,45.3,45.3,45.4-20.3,45.4-45.4S70.4,0,45.3,0M68,51.2l-28,16.2c-4.7,2.7-10.6-.7-10.6-6.1V28.9c0-5.4,5.9-8.9,10.6-6.1l28,16.2c4.7,2.7,4.7,9.5,0,12.2"/>
    </g>
  </g>
</svg>