<?xml version="1.0" encoding="UTF-8"?>
<svg id="Camada_2" data-name="Camada 2" xmlns="http://www.w3.org/2000/svg" viewBox="0 0 2492.94 2500">
  <defs>
    <style>
      .cls-1 {
        fill: #fff;
      }

      .cls-1, .cls-2 {
        fill-rule: evenodd;
      }
    </style>
  </defs>
  <g id="Camada_1-2" data-name="Camada 1">
    <g>
      <path class="cls-2" d="M1753.22,1249.31c0,279.56-225.65,505.62-507.39,505.62s-506.09-226.06-506.09-505.62,225.68-505.63,506.09-505.63,507.39,227.41,507.39,505.63Z"/>
      <path class="cls-2" d="M1245.83,0C558.14,0,0,561.69,0,1249.31s558.16,1250.69,1245.83,1250.69,1247.11-561.8,1247.11-1250.69S1934.9,0,1245.83,0ZM2096.35,1839.21c-269.67,29.43-570.11,34.77-850.52,34.77s-579.53-5.33-849.25-34.77c-78.78-8.02-120.18-26.75-129.51-112.37-14.7-155.15-16.03-314.34-16.03-477.53s1.33-321.04,16.01-476.2c9.35-85.58,50.76-104.29,129.51-112.31,269.74-29.41,570.19-36.19,849.27-34.77,280.41-1.42,580.85,5.36,850.52,34.77,78.85,8.02,120.16,26.73,129.59,112.31,14.59,155.16,16.01,314.34,16.01,476.2s-1.42,322.38-16.01,477.53c-9.44,85.62-50.74,104.35-129.59,112.37Z"/>
      <path class="cls-1" d="M1753.22,1249.31c0,279.56-225.65,505.62-507.39,505.62s-506.09-226.06-506.09-505.62,225.68-505.63,506.09-505.63,507.39,227.41,507.39,505.63Z"/>
      <path class="cls-2" d="M1753.22,1249.31c0,279.56-225.65,505.62-507.39,505.62s-506.09-226.06-506.09-505.62,225.68-505.63,506.09-505.63,507.39,227.41,507.39,505.63Z"/>
    </g>
  </g>
</svg>