<?xml version="1.0" encoding="UTF-8"?>
<svg id="Camada_2" data-name="Camada 2" xmlns="http://www.w3.org/2000/svg" viewBox="0 0 1519.5 389.84">
  <defs>
    <style>
      .cls-1 {
        fill-rule: evenodd;
      }
    </style>
  </defs>
  <g id="Camada_1-2" data-name="Camada 1">
    <path class="cls-1" d="M1051.91,136.74h19.86c4.81,0,8.71,3.9,8.71,8.71v163.85c0,4.81-3.9,8.71-8.71,8.71h-19.86c-4.81,0-8.71-3.9-8.71-8.71v-163.85c0-4.81,3.9-8.71,8.71-8.71M868.51,150.53c10.51-7.77,32.56-7.48,40.7,10.42,12.65-5.38,31.49-15.38,44.92-14.59,14.92.88,23.34,10.92,25.26,25.16,1.11,8.22-.5,13.33-2.12,21.26l-16.16,79.1c-.86,3.43-4.18,5.63-7.66,5.13l-20.37-3.56c-3.47-.85-5.71-4.22-5.17-7.73l14.99-77.52c.19-1.16-1.02-2.18-2.19-1.68l-30.05,13.9c-6.88,2.76-10.03,5.47-11.74,12.38l-15.37,58.45c-1.24,4.24-6.11,6.85-10.43,5.59l-15.84-4.85c-3.93-1.41-6.36-5.65-5.48-9.66l14.81-61.12c.35-1.42-1.34-2.5-2.48-1.63-23.38,18.32-45.16,36.25-67.99,55.37-6.05,5.07-12.88,12.76-21.74,13.68-11.67,1.21-21.88-7.93-21.88-19.72s19.59-78.07,27.05-103.27c.94-2.69,3.49-4.62,6.5-4.62.5,0,.98.05,1.45.15l20.37,4.97c3.03.9,6.3,6.15,5.55,9.48l-11.88,43.1c-.34,1.48,1.34,2.39,2.35,1.71l64.58-49.91ZM175.29,306.86c0,4.7-3.81,8.52-8.52,8.52h-19.41c-4.7,0-8.52-3.81-8.52-8.52v-160.16c0-4.7,3.81-8.52,8.52-8.52h19.41c4.7,0,8.52,3.81,8.52,8.52v160.16ZM348.55,104.39l8.05,16.91c1.38,3.31-.45,8.06-2.99,9.76-6.22,3.81-13.74,9.21-19.01,14.6-28.09,28.7-15.41,71.01,16.08,40.59,27.39-26.47,5.86-55.82,51.21-75.38,15.96-6.88,105.19-39.9,134.7-48.45,3.82-.99,8.2,1.3,9.65,4.8l6.2,16.58c1.42,4.07-.88,8.98-4.69,10.44-41.52,13.86-107.85,33.92-137.32,50.82-10.81,6.2-7.64,28.6-26.06,55.59-27.28,39.97-83.1,42.63-97.28-2.31-7.22-22.88.64-47.07,10.92-63.09,6.91-10.76,23.32-26.93,40.56-34.35,3.44-1.34,8.13.55,9.99,3.48ZM217.41,3.42c48.98-12.71,66.09,15.62,55.13,61.51-8.21,34.37-17.45,67.52-27.13,100.97-1.8,6.22-6.8,20-7.15,24.78-.63,8.57,8.15,10.84,15.13,15.76,68.59,48.31,106.66,90.78,148.05,159.38,2.07,3.77.47,9.33-3.72,11.38l-20.57,9.48c-3.17,1.28-7.67-.08-9.63-2.97-44.38-71.9-74.47-98.48-144.77-151.49-35.29-23.19-30.04-22.4-13.69-78.62,8.75-30.09,17.48-60.48,24.95-91.94,5.82-24.47,3.89-26.75-25.63-14.37-63.84,26.74-125.58,64.28-185.06,100.36-3.54,2.01-8.65.76-10.77-2.4L.86,125.41c-1.81-3.37-.67-8.28,2.49-10.51C50.83,83.85,176.04,14.16,217.41,3.42ZM829.59,93.49l-6.29,26.39c-1.48,4.08-5.9,6.66-10.02,5.82l-16.59-3.95c-3.81-1.14-6.71-5.89-5.87-9.97l6.93-27.22c.81-3.14,3.97-5.06,7.12-4.38l18.71,4.78c3.5,1.25,6.01,4.59,6.01,8.52ZM1512.87,66.89c1.01,3.42,6.63,21.28,6.63,23.34,0,2.78-1.69,5.16-4.1,6.18l-112.02,38.21c-36.46,13.41-27.59,5.29-39.87,40.25-8.06,22.95-18.54,35.13-34.01,46.08-33.11,23.43-67.88,7.62-76.72-25.52-10.04-37.66,16.65-79.16,51.26-93.55,2.73-1.04,6.19.36,7.44,2.89l9.25,20.48c1.07,2.53.07,5.8-2.24,7.33-8.36,5.27-17.44,12.3-24.1,20.63-9.33,11.66-17.11,42.73,2.74,43.49,24.7.95,33.53-35.68,41.32-57.05,7.93-21.77,21.6-26.13,42.53-33.79,41.32-15.12,82.23-29.29,123.85-43.42,3.13-.92,6.93,1,8.03,4.47ZM1221.1,77.6l16.78,4.39c4.07,1.06,6.5,5.22,5.44,9.29l-29.52,107.45c-1.06,4.07-5.22,6.5-9.29,5.44l-16.78-4.39c-4.07-1.06-6.5-5.22-5.44-9.29l29.52-107.45c1.06-4.07,5.22-6.5,9.29-5.44ZM1066.89,26.63c65.66-31.33,134.3-58.24,104.56,61.99-12.86,51.87-22.45,77.34-26.32,91.49-3.72,13.57-2.18,16.73,6.77,22.76,3.89,2.62,9.2,5.78,16.1,10.6,61.75,43.13,101.96,90.31,138.96,153.37,2.09,3.76.71,8.96-3.07,11.21l-19.03,10.82c-3.75,2.04-8.81.7-11.08-2.96-39.54-66.32-87.19-118.37-154.53-158.96-28.74-17.33-17.84-31.08-4.59-76.57l22.57-83.05c4.16-17.17,12.09-33.91-13.11-24.38-47.66,18.03-94.9,45.25-140.04,70.19-3.63,1.85-8.63.47-10.89-3.27l-9.87-16.65c-2.08-3.68-.83-8.89,2.71-11.11,33.27-19.14,66.22-38.96,100.87-55.49ZM604.83,172.39c6.24-41.4,86.81-147.26,80.6-139.15,2.13-3.32,1.67-7.72-1.06-10.53l-14.96-12.08c-3.14-2.3-8.34-1.69-10.91,1.29-34.64,43.58-61.8,85.48-83.27,139.23-3.51,8.79-12.42,35.54-16.35,41.37-9.57,14.19-114.46,45.23-124.97,40.16.75-11.13,34.2-41.28,49.24-48.19.74-.26,1.85.44,1.83,1.38l-.53,5.7c0,2.34,1.66,4.29,3.87,4.74l23.23,3.44c3.33.31,6.97-2.1,8.18-5.13,4.55-12.59,9.87-35.19,3.59-44.87-21.6-33.27-83.01,20.37-100.17,38.42-47.84,50.32-32.46,89.02,20.17,81.03,9.47-1.44,19.69-3.56,29.72-6.6l63.39-19.25c2.43-.62,5,1.76,4.4,4.34l-21.12,83.79c-.77,3.85,2.05,8.31,5.65,9.33l19.1,4.33c3.96.78,8.3-1.88,9.43-5.51l18.99-72.3c3.91-14.08,7.56-37.75,17.03-45.26,9.25-7.33,17.51,4.38,23.42,10.33l95.27,96c2.98,2.82,8.23,2.83,11.25.06l13.22-12.85c2.69-2.87,2.65-8.1.04-11.01l-92.66-96.4c-1.6-1.73-1.02-4.67.99-5.69l87.75-40.84c3.21-1.7,5.08-6.41,3.76-9.93l-8.72-20.33c-1.33-2.71-4.49-3.96-7.3-2.95l-108.12,46.85c-2,.69-4.01-.83-3.97-2.94ZM1254.23,55.38l6.29-26.39c0-3.93-2.51-7.28-6.01-8.53l-18.71-4.78c-3.15-.68-6.3,1.24-7.12,4.38l-6.93,27.22c-.84,4.08,2.06,8.83,5.87,9.97l16.59,3.95c4.12.84,8.54-1.75,10.02-5.82Z"/>
  </g>
</svg>