<?xml version="1.0" encoding="UTF-8"?>
<svg id="Camada_2" data-name="Camada 2" xmlns="http://www.w3.org/2000/svg" viewBox="0 0 1491 2000">
  <g id="Camada_1-2" data-name="Camada 1">
    <g>
      <path d="M215,0c.21,5.15-.28,10.39-.04,15.54.69,15.27,2.29,30.65,3.08,45.91.38,7.36-.27,34.35,2.08,38.91,1.27,2.46,4.97,4.9,6.69,8.31,5.4,10.68,1.14,19.54-5.64,28.02l1.25,16.36c38.2,5.74,72.4,27.87,91.37,61.62,18.02,32.07,20.76,69.97,7.97,104.54-1.53,4.13-10.77,20.04-10.77,21.23v24.99l1.5,1.5h29.5v304.94h79v-213.46l-22.84-10.66-.2-46.16c.4-1.65,19.99-8.27,23.09-11.12,4.37-3.99,16.15-29.54,18.61-30.39l39.33.35,17.11,28.88,2.38,1.62,138.6-.65,17.06-30.19h40.68l17.06,30.19,66.39.66,17.86-30.85h40.68l17.86,30.85h137.8s2.38-1.63,2.38-1.63l17.12-28.88,39.33-.35c2.46.85,14.24,26.39,18.61,30.39,3.11,2.84,22.69,9.46,23.09,11.12l-.2,46.16-22.84,10.66v213.46h79v-304.94h29.5l1.5-1.5v-24.99c0-1.19-9.24-17.1-10.77-21.23-28-75.66,20.58-154.77,99.33-166.16l1.15-16.45c-6.71-8.47-10.91-17.3-5.54-27.93,1.72-3.4,5.42-5.84,6.69-8.31,2.36-4.56,1.7-31.55,2.08-38.91.79-15.26,2.38-30.64,3.08-45.91.24-5.15-.25-10.39-.04-15.54h16l5.03,99.45c7.2,8.42,11.34,14.55,8.29,26.35-1.11,4.3-5.78,7.98-6.3,10.7-.36,1.92-.26,15.61.41,16.54,80.09,11.12,129.59,94.12,98.05,169.88-1.69,4.06-11.49,19.33-11.49,20.51v23.5h30v304.94h75v54.99l-29,24.5v254.45h29v47.99l-29,24.5v175.46h29v46.99l-27.53,21.96-1.45,2.55-.08,161.01,1.5,4.5,27.56,24.94v116.98H0v-116.98l27.56-24.94,1.5-4.5-.08-161.01-1.45-2.55-27.53-21.96v-46.99h29v-175.46l-29-24.5v-47.99h29v-254.45l-29-24.5v-54.99h75v-304.94h30v-23.5c0-1.18-9.8-16.45-11.49-20.51-31.54-75.76,17.96-158.76,98.05-169.88.67-.93.77-14.62.41-16.54-.52-2.72-5.19-6.41-6.3-10.7-3.05-11.8,1.08-17.92,8.29-26.35L199,0h16ZM264,420.91v-89.48c0-1,10.28-12.65,12.17-15.83,26.36-44.43,3.15-103.5-46.95-116.36-79.49-20.4-132.9,74.53-76.22,132.19v89.48h-26v301.94h-45v763.35l-34,45.99v49.49h1395v-49.49l-34-45.99v-763.35h-45v-301.94h-26v-89.48c53.58-53.23,9.04-144.78-66.38-134.36-55.53,7.68-85.51,70.12-56.79,118.53,1.89,3.18,12.17,14.83,12.17,15.83v89.48h-26v301.94h-179v-281.94H469v281.94h-179v-301.94h-26Z"/>
      <path d="M424,1999.59c-6.59.53-17.42.55-24,0-90.66-7.56-124.82-108.29-96.75-185.21,36.21-99.21,180.72-99.7,217.02-.53,28.1,76.78-5.08,178.37-96.27,185.73ZM401.8,1768.94c-67.54,6.33-84.97,87.92-68.31,142.68,25.43,83.61,140.48,78.22,159.23-8.79,14.03-65.07-12.82-141.22-90.92-133.9Z"/>
      <path d="M1152,1999.59c-65.78-4.77-83.39-50.69-83.04-110.44l.04-144.51h33l-.04,155.51c2.44,47.53,18.45,71.92,69.59,69.49,45.39-2.15,56.38-28.35,58.49-69.49l-.04-155.51h33l.04,153.51c.07,56.98-22.57,96.87-83.04,101.44h-28Z"/>
      <polygon points="1491 1995.6 1296 1994.1 1296 1965.1 1447.04 1777.18 1448 1773.64 1310 1773.64 1310 1744.65 1487 1744.65 1487 1775.14 1334 1965.59 1491 1965.6 1491 1995.6"/>
      <path d="M664,1999.59c-83.93-8.18-112.52-88.66-99.68-163.15,11.2-64.96,61.8-103.98,128.06-95.67,42.52,5.33,80.29,35.19,83.63,79.86h-32.5c-2.33-3.68-2.04-8.99-3.45-13.55-6.79-22.06-31.34-36.61-53.57-38.42-79.47-6.49-100.67,69.4-88.19,134.16,9.53,49.42,47.4,76.8,97.74,66.32,25.78-5.37,44.26-25.32,46.15-51.84l1.31-1.69h32.5c-2.49,40.39-29.26,70.81-68.18,80.31-5.73,1.4-14.1,3.22-19.82,3.67h-24Z"/>
      <path d="M0,1744.65h166v28.99H33v77.98h115v29.99H33v112.48c-.88,1.43-1.99,1.38-3.45,1.55-9.09,1.07-20.22-.89-29.55-.05v-250.95Z"/>
      <path d="M821,1744.65h127.49c29.49,2.11,51.64,11.08,63.37,39.63,17.48,42.55-3.22,87.46-48.85,96.83,23.19,9.78,32.16,29.32,40.75,51.24,8.12,20.75,14.84,42.23,22.25,63.24h-35c-7.85-21.1-13.85-43.58-21.98-64.5s-25.9-43.47-50.52-43.47h-64.5v107.98h-33v-250.95ZM854,1857.62h89.5c6.36,0,22.2-5.57,27.41-9.58,17.85-13.72,17.81-51,.56-65.37-6.89-5.74-23.19-11.02-31.97-11.02h-85.5v85.98Z"/>
      <rect x="214" y="1744.65" width="33" height="250.95"/>
    </g>
  </g>
</svg>