<?xml version="1.0" encoding="UTF-8"?>
<svg id="Camada_2" data-name="Camada 2" xmlns="http://www.w3.org/2000/svg" xmlns:xlink="http://www.w3.org/1999/xlink" viewBox="0 0 412.86 713.85">
  <defs>
    <style>
      .cls-1 {
        font-family: Bahnschrift, Bahnschrift;
        font-size: 93.06px;
        font-variation-settings: 'wght' 400, 'wdth' 100;
      }

      .cls-1, .cls-2 {
        fill: #57595b;
      }

      .cls-3 {
        fill: url(#Gradiente_sem_nome_11);
      }

      .cls-4 {
        fill: url(#Gradiente_sem_nome_10);
      }

      .cls-5 {
        letter-spacing: -.02em;
      }
    </style>
    <linearGradient id="Gradiente_sem_nome_11" data-name="Gradiente sem nome 11" x1="0" y1="224.04" x2="412.86" y2="224.04" gradientUnits="userSpaceOnUse">
      <stop offset=".11" stop-color="#000"/>
      <stop offset="1" stop-color="#57595b"/>
    </linearGradient>
    <linearGradient id="Gradiente_sem_nome_10" data-name="Gradiente sem nome 10" x1="93.44" y1="226.53" x2="319.41" y2="226.53" gradientUnits="userSpaceOnUse">
      <stop offset=".39" stop-color="#000"/>
      <stop offset=".52" stop-color="#0d0e0e"/>
      <stop offset=".77" stop-color="#313233"/>
      <stop offset="1" stop-color="#57595b"/>
    </linearGradient>
  </defs>
  <g id="Camada_1-2" data-name="Camada 1">
    <g>
      <path class="cls-3" d="M411.76,136.53c-3.83-30.67-16.73-53.01-24.89-64.89-8.53-12.84-29.25-40.16-66.67-57.33-52.29-24-100.67-11.43-113.78-7.56-13.11-3.87-61.49-16.44-113.78,7.56C55.23,31.48,34.51,58.8,25.98,71.64c-8.16,11.88-21.06,34.22-24.89,64.89-6.46,51.71,17.43,90.58,24.89,101.78l180.44,209.78,180.44-209.78c7.46-11.2,31.34-50.07,24.89-101.78Z"/>
      <path class="cls-4" d="M311.32,102.75c-5.18-13.2-16.91-37.97-41.78-60.44-24.34-21.99-49.55-31.2-63.11-35.11-13.56,3.91-38.77,13.12-63.11,35.11-24.87,22.47-36.6,47.25-41.78,60.44-4.03,11.67-8.84,30.27-8,53.33.65,17.8,4.44,32.4,8,42.67l104.89,247.11,104.89-247.11c3.56-10.27,7.35-24.87,8-42.67.84-23.06-3.97-41.67-8-53.33Z"/>
      <g>
        <path class="cls-2" d="M158.5,610.54c-.12-6.62-1.48-41.4-29.79-62.63-5.46-4.09-11.04-7.03-16.34-9.14-16.86-6.71-35.78-6.71-52.65,0-5.3,2.11-10.88,5.05-16.34,9.14-28.23,21.17-29.66,55.82-29.79,62.63-.21,11.18,1.46,41.98,26.38,62.77,19.54,16.3,41.66,16.67,46.07,16.67,4.23,0,26.59-.41,46.26-17,24.93-21.02,26.39-51.88,26.2-62.43ZM85.92,651.94c-17.26,0-30.88-22.32-30.52-41.4.34-18.18,13.5-39.7,30.64-39.64,17.1.06,30.07,21.56,30.39,39.64.34,19.06-13.25,41.4-30.52,41.4Z"/>
        <path class="cls-2" d="M208.71,536.14c-2.29-1.21-4.29-1.82-5.11-2.05-.82.23-2.82.84-5.11,2.05-23.5,12.42-22.85,58.76-22.53,81.33.1,7.06.1,10.59.7,15.74,2.78,23.8,14.43,56.41,26.94,56.41,12.51,0,24.16-32.61,26.94-56.41.6-5.15.6-8.68.7-15.74.31-22.57.96-68.91-22.53-81.33Z"/>
        <circle class="cls-2" cx="202.97" cy="489.2" r="25.89"/>
      </g>
      <text class="cls-1" transform="translate(260.85 532.67)"><tspan x="0" y="0">FU</tspan><tspan x="0" y="78">TU</tspan><tspan class="cls-5" x="0" y="156">R</tspan><tspan x="58.84" y="156">O</tspan></text>
    </g>
  </g>
</svg>